<?xml version="1.0" encoding="utf-8"?>
<!-- Generator: Adobe Illustrator 27.1.1, SVG Export Plug-In . SVG Version: 6.00 Build 0)  -->
<svg version="1.1" id="Ebene_1" xmlns="http://www.w3.org/2000/svg" xmlns:xlink="http://www.w3.org/1999/xlink" x="0px" y="0px"
	 viewBox="0 0 1200 300" style="enable-background:new 0 0 1200 300;" xml:space="preserve">
<style type="text/css">
	.st0{fill:#FFFFFF;}
</style>
<g>
	<path class="st0" d="M224.4,174.6c-52.6,0-96.5-37.4-103.7-85.8c20.8-35.8,59.6-59.6,103.7-59.6S307.2,53,328.1,88.6
		C320.9,137.2,277,174.6,224.4,174.6L224.4,174.6z M340.9,119.8c-6.4,12-16,28.3-26.4,36.3c-17.6,13.6-52.4,36.1-52.4,36.1
		C245,205.9,234,226.7,234,250.5c0,6.4,0.8,12.6,2.4,18.7c60.9-6.1,108.2-57.5,108.2-119.7C344.6,139.3,343.3,129.5,340.9,119.8
		L340.9,119.8z M186.5,192.5c0,0-34.5-22.4-52.4-36.1c-10.4-8-20-24.3-26.4-36.3c-2.1,9.4-3.5,19.2-3.5,29.4
		c0,62.3,47.3,113.3,107.9,119.7c1.6-5.9,2.4-12,2.4-18.4c0-17.4-6.1-33.7-16-46.2C194.7,200,190.7,196,186.5,192.5L186.5,192.5z"/>
	<g>
		<g>
			<path class="st0" d="M531.1,217.8h-28l-68-110.8h-0.9c0.3,3.7,0.5,7.7,0.7,11.9c0.2,4.2,0.4,8.5,0.6,13c0.2,4.4,0.3,8.9,0.4,13.4
				v72.6h-20.7V79h27.8L511,189.1h0.7c-0.1-3.2-0.3-6.9-0.5-11.1s-0.4-8.5-0.5-13c-0.2-4.5-0.3-8.8-0.3-13V79h20.8V217.8z"/>
			<path class="st0" d="M571.2,72.4c3.4,0,6.4,0.9,8.9,2.8c2.5,1.8,3.8,5,3.8,9.5c0,4.4-1.3,7.6-3.8,9.5c-2.5,1.9-5.5,2.8-8.9,2.8
				c-3.5,0-6.6-0.9-9-2.8s-3.7-5.1-3.7-9.5c0-4.5,1.2-7.7,3.7-9.5C564.6,73.4,567.6,72.4,571.2,72.4z M582.2,112.7v105.1h-22.4
				V112.7H582.2z"/>
			<path class="st0" d="M727.5,110.7c11.8,0,20.7,3,26.6,9.1c6,6.1,9,15.8,9,29.3v68.8h-22.3v-64.7c0-8-1.6-14.1-4.7-18.1
				c-3.1-4-7.8-6-14.2-6c-8.9,0-15.2,2.8-19.1,8.5c-3.9,5.6-5.8,13.8-5.8,24.6v55.7h-22.3v-64.7c0-5.4-0.7-9.9-2-13.4
				c-1.4-3.6-3.4-6.3-6.2-8c-2.8-1.8-6.3-2.7-10.5-2.7c-6.1,0-11,1.4-14.7,4.1c-3.6,2.8-6.3,6.8-7.8,12.3c-1.6,5.4-2.4,12-2.4,19.9
				v52.5h-22.4V112.7h17.5l3.1,14.2h1.2c2.2-3.7,4.8-6.7,8-9.1c3.2-2.4,6.8-4.1,10.7-5.3c3.9-1.2,8-1.8,12.3-1.8
				c7.8,0,14.5,1.4,19.8,4.1s9.4,6.9,12.1,12.6h1.7c3.3-5.7,7.9-9.9,13.8-12.6C714.7,112.1,720.9,110.7,727.5,110.7z"/>
			<path class="st0" d="M811.1,70.1v35.6c0,4.1-0.1,8.2-0.3,12.1c-0.2,4-0.4,7-0.6,9.3h1c2.8-4.6,6.8-8.4,11.9-11.5
				c5.1-3.1,11.6-4.7,19.6-4.7c12.5,0,22.5,4.6,30.1,13.7c7.6,9.1,11.4,22.7,11.4,40.6c0,11.9-1.7,21.9-5.2,30
				c-3.5,8.1-8.4,14.2-14.7,18.4c-6.3,4.1-13.7,6.2-22.2,6.2c-8,0-14.4-1.5-19.3-4.4c-4.9-2.9-8.8-6.4-11.5-10.4h-1.6l-4.1,12.8
				h-16.8V70.1H811.1z M836.8,129c-6.3,0-11.3,1.3-15.1,3.8c-3.7,2.5-6.4,6.3-8,11.3c-1.6,5-2.5,11.4-2.6,19.1v2
				c0,11.7,1.9,20.7,5.6,26.9s10.5,9.3,20.3,9.3c7.8,0,13.8-3.1,17.9-9.4c4.2-6.3,6.3-15.3,6.3-27.1c0-11.8-2.1-20.8-6.3-26.8
				C850.7,132,844.7,129,836.8,129z"/>
			<path class="st0" d="M996.1,112.7v105.1h-17.6l-3.1-14.1h-1.1c-2.2,3.6-5,6.6-8.5,9s-7.2,4.1-11.4,5.3c-4.2,1.1-8.6,1.7-13.2,1.7
				c-7.9,0-14.6-1.3-20.2-4s-9.9-6.9-12.9-12.5c-3-5.6-4.5-12.9-4.5-21.8v-68.7H926v64.5c0,8.2,1.7,14.3,5,18.3
				c3.3,4.1,8.5,6.1,15.5,6.1c6.8,0,12.1-1.4,16.1-4.2c4-2.8,6.8-6.9,8.5-12.3c1.7-5.4,2.6-12.1,2.6-20v-52.3H996.1z"/>
			<path class="st0" d="M1093.2,187.8c0,6.9-1.7,12.7-5,17.5c-3.4,4.7-8.2,8.3-14.7,10.8c-6.4,2.4-14.3,3.7-23.6,3.7
				c-7.3,0-13.7-0.5-18.9-1.6c-5.3-1-10.3-2.6-15.1-4.8v-19.3c5.1,2.3,10.7,4.4,17,6.1s12.1,2.6,17.7,2.6c7.3,0,12.6-1.2,15.8-3.5
				c3.3-2.3,4.9-5.4,4.9-9.3c0-2.3-0.7-4.3-1.9-6.1c-1.3-1.8-3.7-3.7-7.2-5.6c-3.5-1.9-8.7-4.2-15.5-6.9c-6.6-2.7-12.3-5.3-16.8-8
				c-4.6-2.7-8-5.9-10.4-9.6c-2.3-3.7-3.5-8.5-3.5-14.4c0-9.4,3.7-16.5,11.1-21.3c7.4-4.8,17.2-7.3,29.3-7.3
				c6.5,0,12.6,0.6,18.3,1.9c5.7,1.3,11.3,3.2,16.9,5.7l-7,16.8c-4.7-2-9.5-3.7-14.3-5.1c-4.8-1.4-9.6-2-14.6-2
				c-5.8,0-10.1,0.9-13.2,2.7c-3,1.8-4.5,4.3-4.5,7.5c0,2.5,0.7,4.6,2.2,6.3c1.5,1.7,4,3.4,7.6,5.1c3.6,1.7,8.6,3.8,15,6.4
				c6.3,2.4,11.7,4.9,16.3,7.6c4.6,2.6,8.1,5.8,10.6,9.6C1092,176.9,1093.2,181.8,1093.2,187.8z"/>
		</g>
	</g>
</g>
</svg>
